# Blender 5.1.1
# www.blender.org
mtllib edgar_body_low_2.mtl
o Edgar_Body
v 2.420876 -0.810167 1.115157
v 2.420876 -0.810167 1.160493
v 2.386621 -0.919891 1.147928
v 2.386621 -0.919891 1.186709
v 2.654479 -0.861123 1.140778
v 2.654479 -0.861123 1.186113
v 2.446541 -0.861758 1.140778
v 2.446541 -0.861758 1.186113
v 2.570535 -0.902096 1.141374
v 2.570535 -0.902096 1.186709
v 2.527185 -0.943852 1.152992
v 2.536125 -0.928984 1.147928
v 2.536125 -0.928984 1.186709
v 2.527185 -0.943852 1.186709
v 2.384432 -0.889473 1.151489
v 2.392145 -0.873683 1.325253
v 2.327860 -1.076928 1.192628
v 2.327860 -1.076928 1.234363
v 2.541245 -0.918120 1.151489
v 2.548958 -0.902330 1.325253
v 2.362898 -0.953587 1.151489
v 2.362898 -0.953587 1.325253
v 2.492899 -1.017091 1.151489
v 2.492899 -1.017091 1.304399
v 2.379193 -1.080297 1.192628
v 2.423311 -1.065429 1.163406
v 2.423311 -1.065429 1.263585
v 2.379193 -1.080297 1.234363
v 3.071942 -0.637620 0.749622
v -0.775838 -0.906995 0.312714
v -0.700118 -0.744955 1.824333
v -0.775838 0.906997 0.312714
v 3.149864 -0.637620 0.741947
v -0.700118 0.744957 1.824333
v 3.970747 -0.446264 0.314130
v 3.224792 -0.637620 0.719218
v 3.859823 -0.446264 0.963709
v 3.970747 0.446267 0.314130
v 3.293845 -0.637620 0.682308
v 3.859823 0.446267 0.963709
v 1.587502 0.906998 0.226156
v 3.354371 -0.637620 0.632636
v 1.587502 0.744957 1.823057
v 1.587502 -0.906995 0.226156
v 3.404044 -0.637620 0.572110
v 1.587502 -0.744955 1.823057
v 3.440954 -0.637620 0.503056
v 2.299088 0.744957 1.732533
v 2.299089 -0.906995 0.218505
v 3.463683 -0.637620 0.428128
v 0.359543 -0.744955 1.854295
v 2.299088 0.906998 0.218506
v 3.471358 -0.637620 0.350206
v 0.359542 0.744957 1.854295
v 3.463683 -0.637620 0.272284
v 2.299089 -0.744955 1.732532
v 3.201855 0.906998 1.164521
v 3.469604 -0.906995 0.207030
v 3.469604 0.906997 0.207031
v 3.201855 -0.906995 1.164521
v -0.768967 -0.906995 1.059669
v -0.768968 0.906998 1.059669
v 3.915285 0.446267 0.638920
v 3.915285 -0.446264 0.638920
v 1.587502 -0.906995 1.030982
v 1.587502 0.906997 1.030982
v 0.274153 0.906997 1.055844
v 2.299089 -0.906995 0.975519
v 0.274153 -0.906995 1.055844
v 2.299088 0.906997 0.975519
v 3.335730 -0.906995 0.685776
v 3.335730 0.906997 0.685776
v 3.530838 0.814991 1.064115
v 3.720176 -0.814988 0.260580
v 3.720176 0.814991 0.260580
v 3.530838 -0.814989 1.064115
v 3.625507 -0.814988 0.662348
v 3.625507 0.814991 0.662348
v 2.680201 -0.637620 0.272284
v 2.672526 -0.637620 0.350206
v 2.680201 -0.637620 0.428129
v 2.702930 -0.637620 0.503056
v 2.739840 -0.637620 0.572110
v 2.789512 -0.637620 0.632636
v 2.850038 -0.637620 0.682308
v 2.919092 -0.637620 0.719218
v 2.994020 -0.637620 0.741947
v 0.003107 -0.637620 0.749623
v 0.081029 -0.637620 0.741948
v 0.155957 -0.637620 0.719219
v 0.225010 -0.637620 0.682309
v 0.285536 -0.637620 0.632636
v 0.335209 -0.637620 0.572110
v 0.372119 -0.637620 0.503056
v 0.394848 -0.637620 0.428129
v 0.402523 -0.637620 0.350207
v 0.394848 -0.637620 0.272285
v -0.396309 -0.637620 0.350207
v -0.388634 -0.637620 0.428129
v -0.365905 -0.637620 0.503057
v -0.328995 -0.637620 0.572110
v -0.279323 -0.637620 0.632636
v -0.218797 -0.637620 0.682309
v -0.149743 -0.637620 0.719219
v -0.074815 -0.637620 0.741948
v 0.003106 0.627905 0.749623
v 0.081029 0.627905 0.741948
v 0.155956 0.627905 0.719219
v 0.225010 0.627905 0.682309
v 0.285536 0.627905 0.632637
v 0.335209 0.627905 0.572110
v 0.372119 0.627905 0.503057
v 0.394848 0.627905 0.428129
v 0.402523 0.627905 0.350207
v 0.394848 0.627905 0.272285
v -0.396309 0.627905 0.350207
v -0.388634 0.627905 0.428129
v -0.365905 0.627905 0.503057
v -0.328995 0.627905 0.572110
v -0.279323 0.627905 0.632637
v -0.218797 0.627905 0.682309
v -0.149743 0.627905 0.719219
v -0.074815 0.627905 0.741948
v 3.071942 0.627905 0.749622
v 3.149864 0.627905 0.741948
v 3.224792 0.627905 0.719219
v 3.293845 0.627905 0.682309
v 3.354371 0.627905 0.632636
v 3.404044 0.627905 0.572110
v 3.440954 0.627905 0.503056
v 3.463683 0.627905 0.428129
v 3.471358 0.627905 0.350206
v 3.463683 0.627905 0.272284
v 2.680201 0.627905 0.272284
v 2.672526 0.627905 0.350207
v 2.680201 0.627905 0.428129
v 2.702930 0.627905 0.503057
v 2.739840 0.627905 0.572110
v 2.789512 0.627905 0.632636
v 2.850038 0.627905 0.682309
v 2.919092 0.627905 0.719219
v 2.994020 0.627905 0.741948
v 0.384991 0.906997 0.239790
v 0.249224 0.627905 0.241456
v 0.249224 -0.637620 0.241456
v 0.384991 0.627905 0.239790
v 0.384991 -0.637620 0.239790
v 0.384991 -0.906995 0.239790
v 3.126540 -0.906995 0.744245
v 3.224792 -0.906474 0.719218
v 3.234342 -0.906995 0.714114
v 3.149864 -0.906091 0.741947
v -0.389615 0.627905 0.282237
v -0.389614 0.906998 0.282237
v -0.389614 -0.906995 0.282237
v -0.389614 -0.637620 0.282237
v 2.697700 0.627905 0.214598
v 2.697700 0.906997 0.214598
v 3.443965 0.627905 0.207282
v 3.443965 -0.637620 0.207282
v 3.443965 0.906997 0.207282
v 2.697700 -0.637620 0.214598
v 2.697700 -0.906995 0.214598
v 3.443965 -0.906995 0.207282
v 3.149864 0.906997 0.741948
v 3.126540 0.906997 0.744245
v 3.234342 0.906997 0.714114
v 3.224792 0.906998 0.719219
v 2.680201 0.906997 0.428129
v 2.702930 0.906997 0.503057
v 2.739840 0.906997 0.572110
v 2.789512 0.906997 0.632636
v 2.850038 0.906997 0.682309
v 2.994020 0.906998 0.741948
v 3.293845 0.906998 0.682309
v 2.919092 0.906998 0.719219
v 3.071942 0.906998 0.749622
v 2.672526 0.906997 0.350207
v 2.680201 0.906997 0.272284
v 3.457269 0.906997 0.251141
v 3.349463 0.906997 0.636664
v 3.463683 -0.902724 0.272284
v 3.457269 -0.906995 0.251141
v 3.349464 -0.906995 0.636664
v 3.354371 -0.905685 0.632636
v 3.463683 -0.887625 0.428128
v 3.440954 -0.888240 0.503056
v 3.471358 -0.892515 0.350206
v 3.404044 -0.894338 0.572110
v 0.254120 -0.906995 0.658419
v 0.335209 -0.906995 0.572110
v 0.285536 -0.906995 0.632636
v 0.402523 -0.906995 0.350207
v 0.394848 -0.906995 0.428129
v 0.394848 -0.906995 0.272285
v 0.372119 -0.906995 0.503056
v 2.850038 -0.906995 0.682308
v 2.994020 -0.906995 0.741947
v 2.919092 -0.906995 0.719218
v 3.071942 -0.906995 0.749622
v 3.293845 -0.906995 0.682308
v 2.672526 -0.906995 0.350206
v 2.680201 -0.906995 0.272284
v 2.680201 -0.906995 0.428129
v 2.702930 -0.906995 0.503056
v 2.739840 -0.906995 0.572110
v 2.789512 -0.906995 0.632636
v -0.396309 0.906998 0.350207
v -0.388634 0.906998 0.428129
v -0.365905 0.906998 0.503057
v -0.328995 0.906998 0.572111
v -0.279322 0.906998 0.632637
v -0.218797 0.906998 0.682309
v 0.003107 0.906998 0.749623
v -0.074816 0.906998 0.741948
v 0.254120 0.906997 0.658419
v 0.225010 0.906997 0.682309
v 0.155957 0.906997 0.719219
v -0.149743 0.906998 0.719219
v 0.081029 0.906998 0.741948
v 0.335209 0.906997 0.572110
v 0.285536 0.906997 0.632637
v 0.402523 0.906997 0.350207
v 0.394848 0.906997 0.428129
v 0.372119 0.906997 0.503057
v 0.394848 0.906997 0.272285
v -0.279322 -0.906995 0.632636
v -0.218797 -0.906995 0.682309
v -0.074815 -0.906995 0.741948
v -0.149743 -0.906995 0.719219
v 0.081029 -0.906995 0.741948
v 0.225010 -0.906995 0.682309
v 0.155957 -0.906995 0.719219
v 0.003107 -0.906995 0.749622
v -0.396309 -0.906995 0.350207
v -0.388634 -0.906995 0.428129
v -0.328995 -0.906995 0.572110
v -0.365905 -0.906995 0.503057
v 3.354371 0.905769 0.632636
v 3.440954 0.889414 0.503056
v 3.404044 0.895131 0.572110
v 3.471358 0.893422 0.350207
v 3.463683 0.902993 0.272284
v 3.463683 0.888836 0.428129
v 2.384432 0.881163 1.151490
v 2.392144 0.865373 1.325253
v 2.327860 1.068619 1.192628
v 2.327860 1.068619 1.234363
v 2.541245 0.909811 1.151490
v 2.548958 0.894021 1.325253
v 2.362898 0.945278 1.151490
v 2.362898 0.945278 1.325253
v 2.492899 1.008782 1.151490
v 2.492899 1.008782 1.304399
v 2.379193 1.071988 1.192628
v 2.423311 1.057119 1.163406
v 2.423311 1.057119 1.263585
v 2.379193 1.071988 1.234363
v 2.420875 0.801858 1.115157
v 2.420875 0.801858 1.160493
v 2.386620 0.911582 1.147928
v 2.386620 0.911582 1.186709
v 2.654479 0.852813 1.140778
v 2.654479 0.852813 1.186114
v 2.446540 0.853449 1.140778
v 2.446540 0.853449 1.186114
v 2.570535 0.893786 1.141374
v 2.570535 0.893786 1.186710
v 2.527184 0.935542 1.152993
v 2.536125 0.920674 1.147928
v 2.536125 0.920674 1.186710
v 2.527184 0.935542 1.186710
v 2.330705 -0.669248 1.681013
v 2.330705 0.669251 1.681013
v 3.141728 -0.814821 1.170726
v 3.141727 0.814823 1.170727
v -0.597303 0.723065 1.792096
v -0.661627 0.874453 1.077696
v 0.392702 0.723065 1.820089
v 2.204755 0.723064 1.706330
v 1.539944 0.723064 1.790904
v 0.312926 0.874453 1.074123
v 1.539944 0.874453 1.050894
v 2.204755 0.874453 0.999077
v -0.725525 -0.864295 1.060912
v -0.658517 -0.706588 1.805125
v 0.289698 -0.864295 1.057189
v 0.372804 -0.706588 1.834287
v 1.567924 -0.706588 1.803885
v 2.260479 -0.706588 1.715780
v 2.260479 -0.864295 0.979012
v 1.567924 -0.864295 1.032992
v -0.753280 -0.856124 1.078282
v -0.688292 -0.703172 1.800058
v -0.688292 0.703174 1.800058
v -0.753280 0.856126 1.078283
vn 0.6963 -0.7177 -0.0000
vn -0.6157 0.7880 -0.0000
vn -0.4386 0.8987 -0.0000
vn -0.2131 -0.9770 -0.0000
vn -0.0008 0.2730 0.9620
vn 0.0008 -0.2730 -0.9620
vn 0.0009 -0.2729 -0.9620
vn 0.1680 0.9858 -0.0000
vn 0.0001 -0.0073 -1.0000
vn 0.0007 -0.0067 -1.0000
vn 0.8953 0.4454 -0.0000
vn -0.8570 0.5153 -0.0000
vn 0.0218 0.1613 0.9867
vn 0.0218 0.1614 0.9867
vn 0.9619 -0.2733 -0.0000
vn -0.5705 0.8213 -0.0000
vn -0.8985 0.4389 -0.0000
vn -0.1789 -0.9791 0.0969
vn -0.0000 -0.0000 1.0000
vn -0.0333 0.1209 -0.9921
vn 0.0655 0.9979 -0.0000
vn 0.1500 0.5627 -0.8129
vn 0.1500 0.5627 -0.8130
vn 0.1501 0.5626 -0.8130
vn 0.9431 -0.3325 -0.0058
vn -0.3194 0.9476 -0.0000
vn 0.1656 0.2472 0.9547
vn -0.9713 -0.2044 -0.1214
vn -0.9081 -0.1350 0.3965
vn -0.9594 -0.1246 -0.2529
vn 0.7693 0.6188 0.1590
vn 0.7693 0.6188 0.1589
vn 0.9857 -0.0000 0.1683
vn 0.5584 -0.7655 -0.3197
vn 0.4035 -0.4340 0.8055
vn 0.3829 -0.7106 -0.5903
vn 0.2090 -0.0000 -0.9779
vn -0.0283 -0.0000 0.9996
vn 0.1262 -0.0000 0.9920
vn -0.0088 0.0011 -1.0000
vn -0.0116 -0.0000 -0.9999
vn 0.0096 -0.0350 0.9993
vn 0.5771 -0.6032 0.5506
vn 0.2164 0.9759 0.0273
vn 0.1162 0.7463 0.6554
vn 0.2188 0.9128 0.3448
vn 0.0064 0.4955 0.8686
vn 0.0131 0.5015 0.8651
vn -0.0142 -0.9976 0.0675
vn -0.0001 -1.0000 -0.0003
vn -0.0706 -0.0000 -0.9975
vn -0.0707 -0.0000 -0.9975
vn 0.6815 0.1954 0.7053
vn 0.3226 0.1475 0.9350
vn 0.7377 0.1412 0.6602
vn 0.0254 -0.0000 0.9997
vn -0.0119 -0.0008 -0.9999
vn -0.0137 -0.0013 -0.9999
vn -0.6046 -0.7386 -0.2983
vn -0.3680 -0.4013 0.8388
vn -0.5566 -0.5539 0.6192
vn -0.2336 0.9719 0.0289
vn -0.0767 0.7209 0.6888
vn -0.1577 0.9594 -0.2338
vn 0.2919 -0.0000 0.9564
vn 0.2983 -0.9513 0.0775
vn 0.2985 -0.9513 0.0774
vn 0.2984 -0.9513 0.0774
vn -0.0098 -0.0000 -1.0000
vn -0.0142 0.9976 0.0678
vn -0.0000 1.0000 -0.0000
vn 0.3159 -0.9453 0.0811
vn 0.3158 -0.9453 0.0815
vn -0.0000 -1.0000 -0.0000
vn 0.7925 0.5875 0.1639
vn 0.7926 0.5874 0.1637
vn 0.7925 0.5874 0.1638
vn -1.0000 -0.0000 0.0092
vn 0.3160 0.9453 0.0813
vn 0.3184 0.9444 0.0818
vn 0.7925 -0.5874 0.1638
vn 0.7924 -0.5876 0.1640
vn 0.7693 -0.6188 0.1589
vn 0.7693 -0.6188 0.1590
vn 0.3006 0.9506 0.0777
vn 0.2982 0.9513 0.0776
vn -0.0980 -0.0000 -0.9952
vn -0.2903 -0.0000 -0.9569
vn -0.4714 -0.0000 -0.8819
vn -0.6344 -0.0000 -0.7730
vn -0.7730 -0.0000 -0.6344
vn -0.8819 -0.0000 -0.4714
vn -0.9569 -0.0000 -0.2903
vn -0.9952 -0.0000 -0.0980
vn -0.9952 -0.0000 0.0980
vn -0.9569 -0.0000 0.2903
vn 0.9569 -0.0000 0.2903
vn 0.9952 -0.0000 0.0980
vn 0.9952 -0.0000 -0.0980
vn 0.9569 -0.0000 -0.2903
vn 0.8819 -0.0000 -0.4714
vn 0.7730 -0.0000 -0.6344
vn 0.6344 -0.0000 -0.7730
vn 0.4714 -0.0000 -0.8819
vn 0.2903 -0.0000 -0.9569
vn 0.0980 -0.0000 -0.9952
vn -0.9619 -0.2733 -0.0000
vn 0.5705 0.8213 -0.0000
vn 0.8985 0.4389 -0.0000
vn 0.1789 -0.9791 -0.0969
vn -0.0000 -0.0000 -1.0000
vn 0.0333 0.1209 0.9921
vn -0.0655 0.9979 -0.0000
vn -0.1500 0.5627 0.8130
vn -0.1501 0.5626 0.8130
vn -0.9431 -0.3325 0.0058
vn 0.3194 0.9476 -0.0000
vn -0.1656 0.2472 -0.9547
vn -0.1655 0.2472 -0.9547
vn -0.6963 -0.7177 -0.0000
vn 0.6157 0.7880 -0.0000
vn 0.4386 0.8987 -0.0000
vn 0.2131 -0.9770 -0.0000
vn 0.0008 0.2730 -0.9620
vn -0.0008 -0.2730 0.9620
vn -0.0009 -0.2730 0.9620
vn -0.1680 0.9858 -0.0000
vn -0.0006 -0.0068 1.0000
vn -0.0007 -0.0067 1.0000
vn -0.8953 0.4454 -0.0000
vn 0.8570 0.5153 -0.0000
vn -0.0218 0.1613 -0.9867
vn -0.0326 0.9873 0.1556
vn -0.0438 0.9769 0.2091
vn -0.0326 -0.9873 0.1556
vn -0.0438 -0.9769 0.2091
vn 0.5325 -0.0000 0.8464
vn 0.6815 -0.1954 0.7053
vn 0.3226 -0.1475 0.9350
vn 0.3893 -0.1933 0.9006
vn 0.3893 0.1934 0.9006
vn 0.7377 -0.1412 0.6602
vn 0.0010 0.9796 0.2010
vn 0.0183 0.9789 0.2035
vn 0.0001 0.9797 0.2007
vn -0.0025 0.9791 0.2033
vn 0.0213 0.9786 0.2045
vn 0.0210 0.9786 0.2047
vn -0.0518 0.8594 -0.5086
vn -0.0260 0.8438 -0.5360
vn 0.0584 0.4575 0.8873
vn -0.2143 0.8985 0.3832
vn 0.0069 0.8453 -0.5343
vn 0.1170 0.9543 -0.2749
vn 0.0273 0.4924 0.8699
vn -0.0057 0.8397 -0.5430
vn 0.0003 -0.9796 0.2009
vn -0.0024 -0.9791 0.2034
vn -0.0025 -0.9791 0.2033
vn 0.0213 -0.9786 0.2045
vn 0.0183 -0.9789 0.2037
vn 0.0210 -0.9786 0.2047
vn 0.0011 -0.9796 0.2012
vn -0.0776 -0.4771 -0.8754
vn -0.4683 -0.7042 -0.5336
vn 0.0403 -0.0286 0.9988
vn 0.0130 -0.0362 0.9993
vn 0.0057 -0.4639 -0.8858
vn -0.0557 -0.4689 -0.8815
vn 0.0564 -0.0211 0.9982
vn -0.0033 -0.4615 -0.8871
vn -0.9960 -0.0000 0.0897
vn -0.9713 0.2044 -0.1214
vn -0.9081 0.1350 0.3965
vn -0.9508 0.2098 0.2279
vn -0.9508 -0.2098 0.2279
vn -0.9594 0.1246 -0.2529
vn -0.0009 0.2730 0.9620
vn 0.0006 -0.0068 -1.0000
vn -0.0333 0.1208 -0.9921
vn 0.1655 0.2472 0.9547
vn 0.1656 0.2473 0.9547
vn -0.0113 -0.0000 -0.9999
vn -0.0111 -0.0000 -0.9999
vn -0.0117 -0.0000 -0.9999
vn -0.0000 -1.0000 -0.0002
vn -0.0087 0.0007 -1.0000
vn 0.2984 -0.9513 0.0775
vn 0.3183 0.9445 0.0818
vn 0.3185 0.9444 0.0818
vn 0.2984 0.9513 0.0775
vn -0.1500 0.5627 0.8129
vn 0.0008 0.2729 -0.9620
vn -0.0006 -0.0067 1.0000
vn -0.0218 0.1614 -0.9867
vn 0.0068 0.9795 0.2011
vn 0.0067 -0.9796 0.2009
vt 0.625000 0.125000
vt 0.375000 0.250000
vt 0.375000 0.125000
vt 0.375000 0.531421
vt 0.625000 0.625000
vt 0.375000 0.625000
vt 0.625000 0.750000
vt 0.375000 0.750000
vt 0.625000 1.000000
vt 0.375000 1.000000
vt 0.125000 0.750000
vt 0.125000 0.625000
vt 0.875000 0.750000
vt 0.625000 0.250000
vt 0.375000 0.428027
vt 0.875000 0.625000
vt 0.625000 0.531421
vt 0.625000 0.000000
vt 0.375000 0.000000
vt 0.625000 0.428027
vt 0.303027 0.500000
vt 0.696973 0.500000
vt 0.875000 0.500000
vt 0.500000 0.250000
vt 0.500000 0.484375
vt 0.625000 0.500000
vt 0.500000 0.500000
vt 0.500000 0.750000
vt 0.500000 0.000000
vt 0.359375 0.500000
vt 0.359375 0.750000
vt 0.812500 0.750000
vt 0.812500 0.500000
vt 0.687500 0.500000
vt 0.750000 0.750000
vt 0.687500 0.750000
vt 0.250000 0.750000
vt 0.194304 0.712875
vt 0.194304 0.538464
vt 0.500000 0.937500
vt 0.500000 1.000000
vt 0.500000 0.312500
vt 0.625000 0.781250
vt 0.500000 0.787556
vt 0.501144 0.786824
vt 0.151731 0.538464
vt 0.151731 0.712875
vt 0.625000 0.812500
vt 0.750000 0.500000
vt 0.312500 0.500000
vt 0.250000 0.500000
vt 0.500000 0.812500
vt 0.625000 0.437500
vt 0.500000 0.437500
vt 0.640625 0.500000
vt 0.656250 0.750000
vt 0.640625 0.750000
vt 0.625000 0.765625
vt 0.500000 0.781250
vt 0.500000 0.765625
vt 0.343065 0.712875
vt 0.323142 0.712875
vt 0.323142 0.538464
vt 0.625000 0.468750
vt 0.500655 0.465426
vt 0.501129 0.463181
vt 0.496743 0.467429
vt 0.500000 0.468750
vt 0.487177 0.468750
vt 0.375000 0.468750
vt 0.375000 0.468065
vt 0.386517 0.468750
vt 0.461110 0.451904
vt 0.447251 0.450285
vt 0.451954 0.778129
vt 0.431668 0.778008
vt 0.375000 0.375000
vt 0.375000 0.437500
vt 0.415433 0.931478
vt 0.403975 0.930296
vt 0.500000 0.875000
vt 0.496743 0.782571
vt 0.487177 0.781250
vt 0.447251 0.799715
vt 0.461110 0.798096
vt 0.375000 0.781250
vt 0.386517 0.781250
vt 0.375000 0.781935
vt 0.440230 0.286048
vt 0.431976 0.282694
vt 0.500000 0.375000
vt 0.403975 0.319704
vt 0.415433 0.318522
vt 0.375000 0.875000
vt 0.375000 0.812500
vt 0.440230 0.963952
vt 0.446421 0.960115
vt 0.375000 0.500000
vt 0.375000 0.484375
vt 0.431688 0.471891
vt 0.451950 0.471775
vt 0.375000 0.765625
vt 0.343750 0.500000
vt 0.343750 0.750000
vt 0.625000 0.484375
vt 0.968750 0.500000
vt 0.968750 0.929848
vt 0.978104 0.931295
vt 0.968750 0.929849
vt 0.937500 0.500000
vt 0.937500 0.930461
vt 0.906250 0.500000
vt 0.906250 0.931295
vt 0.933178 0.931296
vt 0.875000 0.929197
vt 0.877534 0.931295
vt 0.843750 0.911031
vt 0.843750 0.500000
vt 0.812500 0.901267
vt 0.843750 0.911031
vt 0.781250 0.900282
vt 0.812500 0.901267
vt 0.750000 0.908112
vt 0.718750 0.500000
vt 0.718750 0.924457
vt 0.718750 0.924458
vt 0.691640 0.500000
vt 0.281250 0.500000
vt 0.305309 0.931295
vt 0.305309 0.500000
vt 0.250000 0.931295
vt 0.281250 0.931295
vt 0.218750 0.500000
vt 0.218750 0.931295
vt 0.187500 0.931295
vt 0.218750 0.931295
vt 0.187500 0.931295
vt 0.156250 0.500000
vt 0.156250 0.931295
vt 0.125000 0.931295
vt 0.156250 0.931295
vt 0.093750 0.500000
vt 0.125000 0.500000
vt 0.062500 0.931295
vt 0.093750 0.931295
vt 0.062500 0.931295
vt 0.031250 0.500000
vt 0.031250 0.931295
vt 0.000000 0.931296
vt 0.031250 0.931295
vt 0.796822 0.485388
vt 0.703178 0.485388
vt 0.525126 0.168516
vt 1.000000 0.931295
vt 0.968750 0.931295
vt 0.937500 0.931295
vt 0.968750 0.931295
vt 0.906250 0.931295
vt 0.937500 0.931295
vt 0.875000 0.931295
vt 0.891220 0.931295
vt 0.843750 0.931295
vt 0.875000 0.931295
vt 0.843750 0.931295
vt 0.812500 0.931295
vt 0.781250 0.931295
vt 0.781250 0.500000
vt 0.750000 0.931295
vt 0.781250 0.931295
vt 0.718750 0.931295
vt 0.705198 0.931295
vt 0.718750 0.931295
vt 0.277259 0.500000
vt 0.277259 0.931295
vt 0.250000 0.931295
vt 0.187500 0.500000
vt 0.187500 0.931295
vt 0.156250 0.931295
vt 0.125000 0.931295
vt 0.093750 0.931295
vt 0.093750 0.931295
vt 0.062500 0.500000
vt 0.062500 0.931295
vt 0.000000 0.931295
vt 0.031250 0.931295
vt 0.510000 0.250000
vt 0.514023 0.209158
vt 0.897886 0.437612
vt 1.000000 1.000000
vt 0.968750 0.553146
vt 0.968750 1.000000
vt 0.937500 0.553147
vt 0.937500 1.000000
vt 0.906250 0.553147
vt 0.906250 1.000000
vt 0.891220 0.553146
vt 0.875000 1.000000
vt 0.843750 0.553147
vt 0.843750 1.000000
vt 0.812500 0.553147
vt 0.812500 1.000000
vt 0.781250 0.553146
vt 0.781250 1.000000
vt 0.750000 1.000000
vt 0.750000 0.553146
vt 0.718750 0.553146
vt 0.718750 1.000000
vt 0.705198 1.000000
vt 0.718750 0.553146
vt 0.705198 0.553146
vt 0.250000 1.000000
vt 0.277259 0.553146
vt 0.250000 0.553146
vt 0.218750 0.553147
vt 0.218750 1.000000
vt 0.187500 1.000000
vt 0.218750 0.553146
vt 0.187500 0.553146
vt 0.156250 0.553146
vt 0.156250 1.000000
vt 0.125000 1.000000
vt 0.156250 0.553147
vt 0.125000 0.553146
vt 0.093750 0.553146
vt 0.093750 1.000000
vt 0.062500 0.553146
vt 0.062500 1.000000
vt 0.158156 0.471731
vt 0.203178 0.485388
vt 0.397886 0.062388
vt 0.031250 1.000000
vt 0.062500 0.553146
vt 0.031250 0.553146
vt 0.000000 0.553147
vt 0.000000 1.000000
vt 1.000000 0.553146
vt 0.978104 0.553146
vt 0.968750 0.553147
vt 0.937500 0.553146
vt 0.933178 0.553146
vt 0.906250 0.553146
vt 0.877534 0.553147
vt 0.843750 0.572146
vt 0.812500 0.581300
vt 0.781250 0.582224
vt 0.781250 0.582224
vt 0.750000 0.574883
vt 0.718750 0.559557
vt 0.709932 0.553146
vt 0.691640 0.553146
vt 0.691640 1.000000
vt 0.305309 1.000000
vt 0.281250 0.553146
vt 0.281250 1.000000
vt 0.281250 0.553146
vt 0.250000 0.553146
vt 0.218750 0.553146
vt 0.156250 0.553147
vt 0.125000 0.553146
vt 0.125000 0.553147
vt 0.093750 0.553146
vt 0.062500 0.553147
vt 0.383337 0.050447
vt 0.473540 0.164120
vt 0.062500 0.553146
vt 0.031250 0.553147
vt 0.000000 0.553146
vt 0.656250 0.500000
vt 0.625000 0.312500
vt 0.625000 0.937500
vt 0.194304 0.500000
vt 0.194304 0.750000
vt 0.187500 0.712875
vt 0.187500 0.538464
vt 0.500664 0.784577
vt 0.500000 0.784306
vt 0.151731 0.750000
vt 0.151731 0.500000
vt 0.187500 0.538464
vt 0.312500 0.750000
vt 0.343066 0.500000
vt 0.343066 0.538464
vt 0.343065 0.750000
vt 0.323142 0.750000
vt 0.323142 0.500000
vt 0.500000 0.462444
vt 0.500000 0.465694
vt 0.500000 0.465694
vt 0.386743 0.447849
vt 0.375000 0.448142
vt 0.498113 0.460778
vt 0.492507 0.458372
vt 0.402074 0.447836
vt 0.432530 0.449047
vt 0.417370 0.448228
vt 0.484222 0.456030
vt 0.473605 0.453845
vt 0.391532 0.780528
vt 0.411062 0.778813
vt 0.486166 0.781034
vt 0.487177 0.781250
vt 0.470483 0.779153
vt 0.380024 0.930215
vt 0.375000 0.930696
vt 0.425950 0.933372
vt 0.438999 0.937500
vt 0.435121 0.935905
vt 0.392019 0.929869
vt 0.432530 0.800953
vt 0.375000 0.801858
vt 0.386743 0.802151
vt 0.402074 0.802164
vt 0.498113 0.789222
vt 0.492507 0.791628
vt 0.417371 0.801772
vt 0.484222 0.793970
vt 0.473605 0.796155
vt 0.385786 0.276316
vt 0.375000 0.276731
vt 0.410604 0.277928
vt 0.450339 0.294060
vt 0.446420 0.289885
vt 0.438999 0.312500
vt 0.442514 0.310857
vt 0.447855 0.306973
vt 0.398364 0.276700
vt 0.451026 0.302770
vt 0.451879 0.298410
vt 0.421967 0.279952
vt 0.438999 0.312500
vt 0.435121 0.314096
vt 0.425950 0.316628
vt 0.375000 0.319304
vt 0.380024 0.319785
vt 0.392019 0.320131
vt 0.442514 0.939143
vt 0.450339 0.955940
vt 0.410604 0.972072
vt 0.431975 0.967306
vt 0.375000 0.973269
vt 0.385786 0.973684
vt 0.398364 0.973300
vt 0.447855 0.943027
vt 0.451026 0.947230
vt 0.421967 0.970048
vt 0.451879 0.951590
vt 0.487177 0.468750
vt 0.486163 0.468960
vt 0.391545 0.469449
vt 0.411094 0.471111
vt 0.470468 0.470782
vt 1.000000 0.931295
vt 1.000000 0.500000
vt 0.937500 0.930461
vt 0.691640 0.931295
vt 0.709932 0.931295
vt 0.281250 0.931295
vt 0.000000 0.500000
vt 0.973540 0.335880
vt 0.985388 0.296822
vt 0.990000 0.250000
vt 0.883337 0.449553
vt 0.971731 0.341844
vt 0.949553 0.383337
vt 0.919706 0.419706
vt 0.841844 0.471731
vt 0.750000 0.490000
vt 0.658156 0.028269
vt 0.616663 0.050447
vt 0.580294 0.080294
vt 0.550447 0.116663
vt 0.528269 0.158156
vt 0.514612 0.203178
vt 0.906250 0.931295
vt 0.705198 0.500000
vt 0.979465 0.316347
vt 1.000000 0.553147
vt 0.937500 0.553147
vt 0.875000 0.553147
vt 0.843750 0.553146
vt 0.812500 0.553146
vt 0.750000 0.553146
vt 0.277259 1.000000
vt 0.250000 0.490000
vt 0.296822 0.485388
vt 0.341844 0.471731
vt 0.419706 0.080294
vt 0.449553 0.116663
vt 0.471731 0.158156
vt 0.485388 0.203178
vt 0.490000 0.250000
vt 0.479466 0.183653
vt 0.014023 0.290842
vt 0.010000 0.250000
vt 0.014612 0.296822
vt 0.028269 0.341844
vt 0.050447 0.383337
vt 0.080294 0.419706
vt 0.116663 0.449553
vt 0.968750 0.553146
vt 0.906250 0.553146
vt 0.875000 0.555113
vt 0.875000 0.555114
vt 0.843750 0.572146
vt 0.812500 0.581300
vt 0.718750 0.559558
vt 0.305309 0.553146
vt 0.187500 0.553146
vt 0.156250 0.553146
vt 0.093750 0.553147
vt 0.025126 0.331484
vt 0.471731 0.158156
vt 0.625000 0.375000
vt 0.625000 0.875000
s 1
usemtl EdgarWhite.001
f 8/1/1 3/2/1 7/3/1
f 12/4/2 10/5/2 9/6/2
f 9/6/3 6/7/3 5/8/3
f 5/8/4 2/9/4 1/10/4
f 9/6/5 1/11/5 7/12/5
f 10/5/6 2/13/6 6/7/7
f 4/14/8 11/15/8 3/2/8
f 8/16/9 10/5/10 13/17/10
f 2/18/11 7/3/11 1/19/11
f 13/17/12 11/15/12 14/20/12
f 11/21/13 12/4/14 7/12/13
f 21/3/15 18/14/15 17/2/15
f 27/17/16 23/6/16 26/4/16
f 24/5/17 19/8/17 23/6/17
f 19/8/18 16/9/18 15/10/18
f 23/6/19 15/11/19 21/12/19
f 24/5/20 16/13/20 20/7/20
f 18/14/21 25/15/21 17/2/21
f 28/22/22 18/23/23 22/16/24
f 15/19/25 22/1/25 21/3/25
f 26/4/26 28/20/26 27/17/26
f 26/4/27 23/6/27 21/12/27
f 34/14/28 296/24/29 295/14/30
f 31/18/34 285/29/35 286/18/36
f 34/23/38 51/32/38 54/33/38
f 48/34/39 46/35/39 56/36/39
f 34/14/44 278/24/45 62/24/46
f 56/48/53 275/43/54 273/48/55
f 43/49/56 51/32/56 46/35/56
f 56/48/59 291/52/60 68/52/61
f 48/53/62 284/54/63 280/53/64
f 251/3/107 248/14/107 247/2/107
f 257/17/108 253/6/108 256/4/108
f 254/5/109 249/8/109 253/6/109
f 249/8/110 246/9/110 245/10/110
f 253/6/111 245/11/111 251/12/111
f 254/5/112 246/13/112 250/7/112
f 248/14/113 255/15/113 247/2/113
f 258/22/114 248/23/114 252/16/115
f 245/19/116 252/1/116 251/3/116
f 256/4/117 258/20/117 257/17/117
f 256/4/118 253/6/119 251/12/118
f 266/1/120 261/2/120 265/3/120
f 270/4/121 268/5/121 267/6/121
f 267/6/122 264/7/122 263/8/122
f 263/8/123 260/9/123 259/10/123
f 267/6/124 259/11/124 265/12/124
f 268/5/125 260/13/125 264/7/126
f 262/14/127 269/15/127 261/2/127
f 266/16/128 268/5/129 271/17/129
f 260/18/130 265/3/130 259/19/130
f 271/17/131 269/15/131 272/20/131
f 269/21/132 270/4/132 265/12/132
f 57/64/70 70/54/133 48/53/134
f 68/52/135 60/43/49 56/48/136
f 48/53/138 276/64/139 57/64/140
f 48/34/138 273/36/55 274/34/142
f 43/49/149 280/34/64 281/49/150
f 54/33/153 277/23/154 34/23/44
f 54/33/153 281/49/150 279/33/156
f 46/35/164 290/36/165 56/36/59
f 51/32/168 289/35/169 46/35/164
f 51/32/168 286/13/36 288/32/171
f 31/18/173 293/29/174 61/29/175
f 31/13/173 295/23/30 294/13/177
f 8/1/1 4/14/1 3/2/1
f 12/4/2 13/17/2 10/5/2
f 9/6/3 10/5/3 6/7/3
f 5/8/4 6/7/4 2/9/4
f 9/6/5 5/8/178 1/11/5
f 10/5/6 8/16/6 2/13/6
f 4/14/8 14/20/8 11/15/8
f 13/17/10 14/22/10 8/16/9
f 14/22/10 4/23/179 8/16/9
f 2/18/11 8/1/11 7/3/11
f 13/17/12 12/4/12 11/15/12
f 7/12/13 3/143/13 11/21/13
f 12/4/14 9/6/13 7/12/13
f 21/3/15 22/1/15 18/14/15
f 27/17/16 24/5/16 23/6/16
f 24/5/17 20/7/17 19/8/17
f 19/8/18 20/7/18 16/9/18
f 23/6/19 19/8/19 15/11/19
f 24/5/20 22/16/180 16/13/20
f 18/14/21 28/20/21 25/15/21
f 24/5/22 27/17/22 22/16/24
f 27/17/22 28/22/22 22/16/24
f 15/19/25 16/18/25 22/1/25
f 26/4/26 25/15/26 28/20/26
f 21/12/27 17/143/181 25/21/182
f 25/21/182 26/4/27 21/12/27
f 34/14/28 62/24/176 296/24/29
f 31/18/34 61/29/43 285/29/35
f 34/23/38 31/13/38 51/32/38
f 48/34/39 43/49/39 46/35/39
f 34/14/44 277/14/154 278/24/45
f 56/48/53 60/43/141 275/43/54
f 43/49/56 54/33/56 51/32/56
f 56/48/59 290/48/165 291/52/60
f 48/53/62 70/54/152 284/54/63
f 251/3/107 252/1/107 248/14/107
f 257/17/108 254/5/108 253/6/108
f 254/5/109 250/7/109 249/8/109
f 249/8/110 250/7/110 246/9/110
f 253/6/111 249/8/111 245/11/111
f 254/5/112 252/16/112 246/13/112
f 248/14/113 258/20/113 255/15/113
f 254/5/192 257/17/114 252/16/115
f 257/17/114 258/22/114 252/16/115
f 245/19/116 246/18/116 252/1/116
f 256/4/117 255/15/117 258/20/117
f 251/12/118 247/143/119 255/21/118
f 255/21/118 256/4/118 251/12/118
f 266/1/120 262/14/120 261/2/120
f 270/4/121 271/17/121 268/5/121
f 267/6/122 268/5/122 264/7/122
f 263/8/123 264/7/123 260/9/123
f 267/6/124 263/8/193 259/11/124
f 268/5/125 266/16/125 260/13/125
f 262/14/127 272/20/127 269/15/127
f 271/17/129 272/22/194 266/16/128
f 272/22/194 262/23/128 266/16/128
f 260/18/130 266/1/130 265/3/130
f 271/17/131 270/4/131 269/15/131
f 265/12/132 261/143/132 269/21/132
f 270/4/132 267/6/195 265/12/132
f 48/53/138 274/53/142 276/64/139
f 48/34/138 56/36/53 273/36/55
f 43/49/149 48/34/62 280/34/64
f 54/33/153 279/33/156 277/23/154
f 54/33/153 43/49/149 281/49/150
f 46/35/164 289/35/169 290/36/165
f 51/32/168 288/32/171 289/35/169
f 51/32/168 31/13/34 286/13/36
f 31/18/173 294/18/177 293/29/174
f 31/13/173 34/23/28 295/23/30
usemtl EdgarBlue.001
f 78/25/31 40/26/32 63/27/31
f 40/26/33 64/28/33 63/27/33
f 69/40/42 285/41/35 61/41/43
f 67/42/47 278/24/45 282/42/48
f 60/43/49 149/44/50 152/45/50
f 73/55/65 60/56/65 76/57/65
f 76/58/66 71/59/67 77/60/68
f 57/64/70 168/65/71 165/66/71
f 175/67/71 72/68/71 181/69/71
f 70/54/71 172/73/71 171/74/71
f 77/60/72 187/75/72 186/76/73
f 41/77/71 70/54/71 52/78/71
f 196/79/74 194/80/74 65/81/74
f 71/59/74 201/82/74 184/83/74
f 68/52/74 206/84/74 207/85/74
f 213/89/71 212/90/71 62/24/71
f 66/91/71 224/92/71 225/93/71
f 68/52/74 44/94/74 49/95/74
f 61/41/74 228/96/74 230/97/74
f 63/27/33 35/8/33 38/98/33
f 75/99/75 63/27/76 38/98/77
f 61/29/78 32/2/78 30/19/78
f 78/25/79 244/100/80 240/101/80
f 64/28/81 74/102/82 35/8/81
f 37/7/83 77/60/83 64/28/84
f 40/26/65 76/57/65 37/7/65
f 72/68/85 73/105/86 78/25/79
f 60/56/141 276/268/139 275/56/54
f 66/91/151 284/54/63 70/54/152
f 67/42/47 283/91/155 66/91/151
f 69/40/42 292/81/166 287/40/167
f 65/81/170 291/52/60 292/81/166
f 61/29/175 296/24/29 62/24/176
f 78/25/31 73/105/32 40/26/32
f 40/26/33 37/7/33 64/28/33
f 69/40/42 287/40/167 285/41/35
f 67/42/47 62/24/46 278/24/45
f 150/275/50 151/276/186 60/43/49
f 151/276/186 71/59/74 60/43/49
f 60/43/49 68/52/135 149/44/50
f 152/45/50 150/275/50 60/43/49
f 73/55/65 57/268/65 60/56/65
f 76/58/66 60/43/188 71/59/67
f 166/286/71 70/54/133 57/64/70
f 57/64/70 72/68/71 167/287/71
f 57/64/70 167/287/71 168/65/71
f 165/66/71 166/286/71 57/64/70
f 175/67/71 167/288/71 72/68/71
f 179/289/71 158/290/71 52/78/71
f 70/54/71 166/286/71 177/291/71
f 70/54/71 177/291/71 174/292/71
f 179/289/71 52/78/71 178/293/71
f 52/78/71 70/54/71 170/294/71
f 178/293/71 52/78/71 169/295/71
f 169/295/71 52/78/71 170/294/71
f 70/54/71 174/292/71 176/296/71
f 70/54/71 176/296/71 173/297/71
f 70/54/71 173/297/71 172/73/71
f 171/74/71 170/294/71 70/54/71
f 182/298/72 183/87/72 58/86/72
f 58/86/72 74/102/72 182/298/72
f 74/102/72 77/60/72 186/76/73
f 182/298/72 74/102/72 188/299/72
f 77/60/72 71/59/72 185/300/72
f 71/59/72 184/301/72 185/300/72
f 188/299/72 74/102/72 186/76/73
f 77/60/72 185/300/72 189/302/72
f 77/60/72 189/302/72 187/75/72
f 41/77/71 66/91/71 70/54/71
f 195/303/74 148/304/74 44/94/74
f 44/94/74 65/81/74 194/80/74
f 65/81/74 69/40/74 191/305/74
f 69/40/74 190/306/74 192/307/74
f 69/40/74 192/307/74 191/305/74
f 193/308/74 195/303/74 44/94/74
f 194/80/74 193/308/74 44/94/74
f 65/81/74 191/305/74 196/79/74
f 71/59/74 151/276/186 201/82/74
f 68/52/74 49/95/74 205/309/74
f 49/95/74 163/310/74 203/311/74
f 49/95/74 203/311/74 202/312/74
f 200/313/74 149/44/74 68/52/74
f 198/314/74 200/313/74 68/52/74
f 49/95/74 202/312/74 204/315/74
f 49/95/74 204/315/74 205/309/74
f 199/316/74 198/314/74 68/52/74
f 197/317/74 199/316/74 68/52/74
f 68/52/74 205/309/74 206/84/74
f 207/85/74 197/317/74 68/52/74
f 208/318/71 154/319/71 32/2/71
f 32/2/71 62/24/71 210/320/71
f 62/24/71 67/42/71 215/321/71
f 213/89/71 62/24/71 219/322/71
f 67/42/71 216/323/71 217/324/71
f 67/42/71 217/324/71 218/325/71
f 209/326/71 208/318/71 32/2/71
f 210/320/71 209/326/71 32/2/71
f 67/42/71 218/325/71 220/327/71
f 67/42/71 220/327/71 214/328/71
f 211/329/71 210/320/71 62/24/71
f 212/90/71 211/329/71 62/24/71
f 67/42/71 214/328/71 215/321/71
f 215/321/71 219/322/71 62/24/71
f 216/330/71 67/42/71 222/331/71
f 67/42/71 66/91/71 221/332/71
f 222/331/71 67/42/71 221/332/71
f 66/91/71 41/77/71 224/92/71
f 41/77/71 143/333/71 226/334/71
f 41/77/71 226/334/71 223/335/71
f 41/77/71 223/335/71 224/92/71
f 225/93/71 221/332/71 66/91/71
f 68/52/74 65/81/74 44/94/74
f 232/336/74 190/306/74 69/40/74
f 69/40/74 61/41/74 229/337/74
f 61/41/74 30/10/74 238/338/74
f 228/96/74 61/41/74 227/339/74
f 30/10/74 155/340/74 235/341/74
f 30/10/74 235/341/74 236/342/74
f 233/343/74 232/336/74 69/40/74
f 231/344/74 233/343/74 69/40/74
f 30/10/74 236/342/74 238/338/74
f 238/338/74 237/345/74 61/41/74
f 234/346/74 231/344/74 69/40/74
f 229/337/74 234/346/74 69/40/74
f 237/345/74 227/339/74 61/41/74
f 230/97/74 229/337/74 61/41/74
f 63/27/33 64/28/33 35/8/33
f 75/99/75 78/25/77 63/27/76
f 61/29/78 62/24/78 32/2/78
f 181/347/189 72/68/85 239/348/80
f 72/68/85 78/25/79 239/348/80
f 78/25/79 75/99/80 244/100/80
f 75/99/80 59/70/80 243/349/80
f 242/350/80 75/99/80 243/349/80
f 59/70/80 180/72/80 243/349/80
f 241/351/190 239/348/80 78/25/79
f 75/99/80 242/350/80 244/100/80
f 240/101/80 241/351/190 78/25/79
f 64/28/81 77/60/81 74/102/82
f 37/7/83 76/58/83 77/60/83
f 40/26/65 73/55/65 76/57/65
f 72/68/85 57/64/191 73/105/86
f 60/56/141 57/268/140 276/268/139
f 66/91/151 283/91/155 284/54/63
f 67/42/47 282/42/48 283/91/155
f 69/40/42 65/81/170 292/81/166
f 65/81/170 68/52/61 291/52/60
f 61/29/175 293/29/174 296/24/29
usemtl Underground.001
f 75/30/37 35/8/37 74/31/37
f 44/37/40 147/38/41 146/39/41
f 30/11/51 153/46/52 156/47/51
f 52/50/57 44/37/40 41/51/58
f 160/61/69 162/62/69 157/63/69
f 59/70/71 161/71/71 180/72/71
f 58/86/74 183/87/74 164/88/74
f 59/103/37 74/31/37 58/104/37
f 33/106/87 152/107/87 149/108/87
f 152/109/88 36/110/88 150/111/88
f 39/112/89 201/113/89 151/114/89
f 42/23/90 185/115/90 184/116/90
f 42/23/91 189/117/91 185/115/91
f 45/118/92 187/119/92 189/120/92
f 47/33/93 186/121/93 187/122/93
f 186/121/94 53/49/94 188/123/94
f 188/123/95 55/124/95 182/125/95
f 182/126/96 55/124/96 160/127/96
f 79/128/97 163/129/97 162/130/97
f 79/128/98 202/131/98 203/132/98
f 202/131/99 81/133/99 204/134/99
f 81/133/100 205/135/100 204/136/100
f 205/137/101 83/138/101 206/139/101
f 83/138/102 207/140/102 206/141/102
f 85/142/103 207/140/103 84/143/103
f 85/142/104 199/144/104 197/145/104
f 199/146/105 87/147/105 198/148/105
f 87/147/106 200/149/106 198/150/106
f 33/151/74 87/152/74 162/153/74
f 234/154/87 89/106/87 231/155/87
f 89/106/88 233/156/88 231/157/88
f 90/110/89 232/158/89 233/159/89
f 92/23/90 192/160/90 190/161/90
f 92/23/91 191/162/91 192/163/91
f 191/164/92 94/33/92 196/165/92
f 94/33/93 194/166/93 196/165/93
f 95/167/94 193/168/94 194/169/94
f 96/49/95 195/170/95 193/168/95
f 97/124/96 148/171/96 195/172/96
f 156/173/98 235/131/98 155/174/98
f 98/51/99 236/134/99 235/175/99
f 236/136/100 100/176/100 238/135/100
f 100/176/101 237/141/101 238/177/101
f 237/178/102 102/143/102 227/179/102
f 102/143/103 228/180/103 227/140/103
f 228/181/104 104/182/104 230/146/104
f 104/182/105 229/148/105 230/183/105
f 105/147/106 234/184/106 229/185/106
f 98/186/74 156/187/74 145/188/74
f 106/189/87 220/190/87 107/191/87
f 107/191/88 218/192/88 108/193/88
f 108/193/89 217/194/89 109/195/89
f 109/195/90 217/194/90 216/196/90
f 110/197/91 221/198/91 111/199/91
f 111/199/92 225/200/92 112/201/92
f 112/201/93 224/202/93 113/203/93
f 114/204/94 224/202/94 223/205/94
f 114/204/95 226/206/95 115/207/95
f 146/208/96 226/209/96 143/210/96
f 116/211/98 154/212/98 208/213/98
f 116/211/99 209/214/99 117/215/99
f 118/216/100 209/217/100 210/218/100
f 118/216/101 211/219/101 119/220/101
f 120/221/102 211/222/102 212/223/102
f 120/221/103 213/224/103 121/225/103
f 121/225/104 219/226/104 122/227/104
f 122/228/71 123/229/71 144/230/71
f 123/231/105 219/232/105 215/233/105
f 123/231/106 214/234/106 106/235/106
f 124/189/87 177/236/87 166/237/87
f 126/193/88 165/238/88 168/192/88
f 126/193/89 168/239/89 167/240/89
f 127/195/90 175/241/90 181/242/90
f 128/197/91 241/243/91 129/199/91
f 129/199/92 240/244/92 130/201/92
f 130/201/93 244/245/93 131/203/93
f 132/204/94 244/246/94 242/247/94
f 133/207/95 242/247/95 243/248/95
f 180/249/96 161/250/96 159/251/96
f 157/252/97 179/253/97 134/254/97
f 135/211/98 179/255/98 178/213/98
f 136/215/99 178/256/99 169/257/99
f 137/216/100 169/217/100 170/218/100
f 137/216/101 171/258/101 138/220/101
f 138/220/102 172/259/102 139/221/102
f 140/225/103 172/260/103 173/261/103
f 140/225/104 176/262/104 141/227/104
f 142/229/71 127/263/71 159/264/71
f 142/231/105 176/265/105 174/266/105
f 124/235/106 174/233/106 177/267/106
f 75/30/37 38/98/37 35/8/37
f 143/271/183 41/51/58 146/39/41
f 41/51/58 44/37/40 146/39/41
f 44/37/40 148/272/183 147/38/41
f 147/38/41 145/273/184 144/274/185
f 147/38/41 144/274/185 146/39/41
f 156/47/51 155/277/52 30/11/51
f 30/11/51 32/143/52 153/46/52
f 32/143/52 154/278/51 153/46/52
f 153/46/52 144/279/52 145/273/51
f 153/46/52 145/273/51 156/47/51
f 52/50/57 49/280/187 44/37/40
f 161/281/69 59/103/69 159/282/69
f 59/103/69 58/104/69 159/282/69
f 159/282/69 58/104/69 160/61/69
f 58/104/69 164/283/69 160/61/69
f 162/62/69 163/284/69 49/280/187
f 162/62/69 49/280/187 157/63/69
f 49/280/187 52/50/57 157/63/69
f 52/50/57 158/285/69 157/63/69
f 157/63/69 159/282/69 160/61/69
f 59/103/37 75/30/37 74/31/37
f 200/352/87 29/353/87 149/108/87
f 29/353/87 33/106/87 149/108/87
f 152/109/88 33/106/88 36/110/88
f 151/114/89 150/354/89 36/110/89
f 36/110/89 39/112/89 151/114/89
f 184/116/90 201/113/90 39/112/90
f 39/112/90 42/23/90 184/116/90
f 42/23/91 45/118/91 189/117/91
f 45/118/92 47/33/92 187/119/92
f 47/33/93 50/167/93 186/121/93
f 186/121/94 50/167/94 53/49/94
f 188/123/95 53/49/95 55/124/95
f 164/355/96 183/356/96 160/127/96
f 183/356/96 182/126/96 160/127/96
f 79/128/97 203/357/97 163/129/97
f 79/128/98 80/51/98 202/131/98
f 202/131/99 80/51/99 81/133/99
f 81/133/100 82/176/100 205/135/100
f 205/137/101 82/176/101 83/138/101
f 83/138/102 84/143/102 207/140/102
f 85/142/103 197/180/103 207/140/103
f 85/142/104 86/182/104 199/144/104
f 199/146/105 86/182/105 87/147/105
f 87/147/106 29/358/106 200/149/106
f 162/153/74 160/359/74 33/151/74
f 160/359/74 55/360/74 53/361/74
f 33/151/74 160/359/74 39/362/74
f 53/361/74 50/360/74 160/359/74
f 50/360/74 47/363/74 160/359/74
f 47/363/74 45/364/74 160/359/74
f 45/364/74 42/365/74 160/359/74
f 42/365/74 39/362/74 160/359/74
f 39/362/74 36/366/74 33/151/74
f 33/151/74 29/367/74 87/152/74
f 87/152/74 86/368/74 162/153/74
f 86/368/74 85/369/74 162/153/74
f 85/369/74 84/370/74 162/153/74
f 84/370/74 83/371/74 162/153/74
f 83/371/74 82/372/74 162/153/74
f 82/372/74 81/373/74 162/153/74
f 81/373/74 80/186/74 162/153/74
f 80/186/74 79/373/74 162/153/74
f 234/154/87 88/353/87 89/106/87
f 89/106/88 90/110/88 233/156/88
f 90/110/89 91/112/89 232/158/89
f 190/161/90 232/374/90 91/112/90
f 91/112/90 92/23/90 190/161/90
f 92/23/91 93/118/91 191/162/91
f 191/164/92 93/118/92 94/33/92
f 94/33/93 95/167/93 194/166/93
f 95/167/94 96/49/94 193/168/94
f 96/49/95 97/124/95 195/170/95
f 97/124/96 147/375/96 148/171/96
f 156/173/98 98/51/98 235/131/98
f 98/51/99 99/133/99 236/134/99
f 236/136/100 99/133/100 100/176/100
f 100/176/101 101/138/101 237/141/101
f 237/178/102 101/138/102 102/143/102
f 102/143/103 103/142/103 228/180/103
f 228/181/104 103/142/104 104/182/104
f 104/182/105 105/147/105 229/148/105
f 105/147/106 88/358/106 234/184/106
f 145/188/74 147/376/74 97/360/74
f 97/360/74 96/361/74 145/188/74
f 96/361/74 95/360/74 145/188/74
f 95/360/74 94/363/74 145/188/74
f 94/363/74 93/364/74 145/188/74
f 93/364/74 92/365/74 145/188/74
f 92/365/74 91/362/74 145/188/74
f 91/362/74 90/366/74 145/188/74
f 90/366/74 89/151/74 145/188/74
f 89/151/74 88/367/74 145/188/74
f 88/367/74 105/152/74 145/188/74
f 105/152/74 104/368/74 145/188/74
f 104/368/74 103/369/74 145/188/74
f 103/369/74 102/370/74 145/188/74
f 102/370/74 101/371/74 145/188/74
f 101/371/74 100/372/74 145/188/74
f 100/372/74 99/373/74 145/188/74
f 99/373/74 98/186/74 145/188/74
f 106/189/87 214/377/87 220/190/87
f 107/191/88 220/190/88 218/192/88
f 108/193/89 218/378/89 217/194/89
f 222/379/90 110/197/90 216/196/90
f 110/197/90 109/195/90 216/196/90
f 110/197/91 222/379/91 221/198/91
f 111/199/92 221/380/92 225/200/92
f 112/201/93 225/381/93 224/202/93
f 114/204/94 113/203/94 224/202/94
f 114/204/95 223/382/95 226/206/95
f 146/208/96 115/207/96 226/209/96
f 116/211/98 153/383/98 154/212/98
f 116/211/99 208/256/99 209/214/99
f 118/216/100 117/215/100 209/217/100
f 118/216/101 210/218/101 211/219/101
f 120/221/102 119/220/102 211/222/102
f 120/221/103 212/223/103 213/224/103
f 121/225/104 213/224/104 219/226/104
f 123/229/71 106/384/71 144/230/71
f 106/384/71 107/385/71 144/230/71
f 107/385/71 108/386/71 144/230/71
f 108/386/71 109/263/71 144/230/71
f 109/263/71 110/387/71 144/230/71
f 110/387/71 111/388/71 144/230/71
f 111/388/71 112/389/71 144/230/71
f 112/389/71 113/390/71 144/230/71
f 113/390/71 114/391/71 144/230/71
f 114/391/71 115/390/71 144/230/71
f 115/390/71 146/392/71 144/230/71
f 144/230/71 153/393/71 116/394/71
f 116/394/71 117/395/71 144/230/71
f 117/395/71 118/396/71 144/230/71
f 118/396/71 119/397/71 144/230/71
f 119/397/71 120/398/71 144/230/71
f 120/398/71 121/399/71 144/230/71
f 121/399/71 122/228/71 144/230/71
f 123/231/105 122/227/105 219/232/105
f 123/231/106 215/266/106 214/234/106
f 165/400/87 125/191/87 166/237/87
f 125/191/87 124/189/87 166/237/87
f 126/193/88 125/191/88 165/238/88
f 175/401/89 127/195/89 167/240/89
f 127/195/89 126/193/89 167/240/89
f 239/402/90 128/197/90 181/242/90
f 128/197/90 127/195/90 181/242/90
f 128/197/91 239/403/91 241/243/91
f 129/199/92 241/404/92 240/244/92
f 130/201/93 240/405/93 244/245/93
f 132/204/94 131/203/94 244/246/94
f 133/207/95 132/204/95 242/247/95
f 159/251/96 133/207/96 243/406/96
f 243/406/96 180/249/96 159/251/96
f 157/252/97 158/407/97 179/253/97
f 135/211/98 134/254/98 179/255/98
f 136/215/99 135/211/99 178/256/99
f 137/216/100 136/215/100 169/217/100
f 137/216/101 170/408/101 171/258/101
f 138/220/102 171/409/102 172/259/102
f 140/225/103 139/221/103 172/260/103
f 140/225/104 173/410/104 176/262/104
f 159/264/71 157/411/71 142/229/71
f 157/411/71 134/395/71 135/394/71
f 142/229/71 157/411/71 141/228/71
f 135/394/71 136/395/71 157/411/71
f 136/395/71 137/396/71 157/411/71
f 137/396/71 138/397/71 157/411/71
f 138/397/71 139/398/71 157/411/71
f 139/398/71 140/399/71 157/411/71
f 140/399/71 141/228/71 157/411/71
f 142/229/71 124/384/71 125/385/71
f 125/385/71 126/386/71 127/263/71
f 127/263/71 128/387/71 159/264/71
f 128/387/71 129/388/71 159/264/71
f 129/388/71 130/412/71 159/264/71
f 130/412/71 131/390/71 159/264/71
f 131/390/71 132/391/71 159/264/71
f 132/391/71 133/390/71 159/264/71
f 142/229/71 125/385/71 127/263/71
f 142/231/105 141/227/105 176/265/105
f 124/235/106 142/231/106 174/233/106
usemtl Glass.001
f 274/34/137 275/56/137 276/268/137
f 279/269/143 283/91/144 282/42/145
f 277/14/146 282/42/145 278/24/146
f 283/91/144 280/53/147 284/54/148
f 287/40/157 286/9/158 285/41/159
f 290/48/160 292/81/161 291/52/162
f 292/81/161 288/270/163 287/40/157
f 293/29/172 295/14/172 296/24/172
f 274/34/137 273/36/137 275/56/137
f 279/269/143 281/413/196 283/91/144
f 277/14/146 279/269/143 282/42/145
f 283/91/144 281/413/196 280/53/147
f 287/40/157 288/270/163 286/9/158
f 290/48/160 289/414/197 292/81/161
f 292/81/161 289/414/197 288/270/163
f 293/29/172 294/18/172 295/14/172
